<svg enable-background="new 0 0 384 340" viewBox="0 0 384 340" xmlns="http://www.w3.org/2000/svg" xmlns:xlink="http://www.w3.org/1999/xlink"><defs><clipPath id="a"><use xlink:href="#b"/></clipPath><path id="b" d="m296.4 340h-208.8c-48.2 0-87.6-39.4-87.6-87.6 0 0 13.2-147.3 13.2-147.4 2.5-27.5 11.4-51.5 34-69 20.8-16.2 47.5-19.1 73-20.6 21.9-1.3 43.7-3.6 65.6-5.5 35.7-3.2 71.5-6.4 107.2-9.6 1.1-.1 5.3-.3 6.5-.3 48.1 0 84.5 39.4 84.5 87.5v164.9c0 48.2-39.4 87.6-87.6 87.6z"/></defs><use fill="#22313f" xlink:href="#b"/><g clip-path="url(#a)" fill="none" stroke="#ae9554" stroke-miterlimit="10"><path d="m13.1 251.1c-4.5 0-9 .8-13.1 2.4"/><path d="m6.1 246.9c.5 3.6 1.4 7.2 2.5 10.7"/><path d="m12.5 254.2c-3.6-1.9-7.2-3.8-10.9-5.7"/><path d="m347.5 148.4c3.9 2.2 8.2 3.7 12.6 4.3"/><path d="m351.6 155.5c1.3-3.4 2.3-7 3-10.6"/><path d="m349.6 146.1c2.2 3.4 4.4 6.9 6.7 10.3"/><path d="m335.6 306.4c-2.2 1-4.3 2.1-6.4 3.4"/><path d="m331 304.4c.8 2.5 1.7 4.9 2.5 7.4"/><path d="m335.5 309.2c-2.3-1-4.6-2.1-6.9-3.1"/><path d="m89.9 210.4c-.9-2.9-1.7-5.8-2.6-8.8"/><path d="m93.7 205.8c-3-.1-6 .3-8.9 1.1"/><path d="m87.3 209.7c1.2-2.6 2.6-5.2 4.1-7.6"/><path d="m215.4 292.7c-.8.6-1.5 1.3-2.3 1.9"/><path d="m92.6 322c-.5 1.8-.9 3.6-1.4 5.4"/><path d="m318 113.5c-.9-.9-2.2-1.4-3.4-1.5"/><path d="m211.8 6c-.6 1.3-.9 2.8-.8 4.3"/><path d="m381.2 234.4c-1.2-1.3-2.3-2.7-3.5-4"/><path d="m143.9 248.4c-.7 1.2-1.2 2.5-1.3 3.9"/><path d="m145.4 27.5c-.2 1.4 0 2.8.4 4.1"/><path d="m324.6 54.1c-1.3-.5-2.7-.7-4.1-.6"/><path d="m270.2 298.4c-.3 2.6-.6 5.2-1 7.7"/><path d="m274 302c-2.6-.3-5.2-.6-7.7-.9"/><path d="m272.1 305c-1-1.4-1.6-3.1-1.7-4.8"/><path d="m266.2 47.5c-1.3-2.2-2.6-4.5-3.9-6.7"/><path d="m261 46.9c2.2-1.3 4.5-2.6 6.7-4"/><path d="m260.7 43.4c1.6.5 3.1 1.5 4.3 2.7"/><path d="m137.9 109.9c-1.4-.1-2.7-.9-3.4-2.1"/><path d="m88.7 88.6c-1.4 1.5-2.2 3.5-2.2 5.6"/><path d="m89.4 92.6c-1.7-.4-3.3-1.2-4.6-2.3"/><path d="m166.2 70.2c-.7 1.9-1.5 3.7-2.2 5.6"/><path d="m162.3 71.8c2.3.6 4.4 1.7 6.2 3.2"/><path d="m168.6 71.6c-1.6 1.4-3.4 2.4-5.4 3.1"/><path d="m174.6 306.7c-2 .8-4.1 1.6-6.1 2.3"/><path d="m173 312.4c-.2-2.8-1-5.7-2.5-8.1"/><path d="m175.7 309.9c-1.8-.9-3.7-1.8-5.5-2.8-.4-.2-1.1-.3-1.2.2"/></g><g clip-path="url(#a)" fill="none" stroke="#f5f7fa" stroke-miterlimit="10" stroke-width="2"><g stroke-dasharray="5"><path d="m280.1 175.6c0-94.1-162.6-102.6-177.1-11.1-.6 3.7-.9 7.4-.9 11.1 0 66.1 81.8 93.1 134.3 68 26.2-12.4 43.7-38.7 43.7-68z"/><path d="m197.7 149.9c.7-3 3.1-13.6 3.7-16.6"/><path d="m193.1 207.5c.1 3.3.3 6.8 1.1 10.8"/></g><path d="m212.5 175.9c-.1-6.7-3.2-13.2-10.3-16.8-6.2-3.1-15-3.2-21 .4-9.6 5.8-12.6 18.3-7.4 28.1 4.2 7.8 13.7 10.8 22.1 9.4 1.9-.3 6.1-.7 7.6-1.9 5.7-4.7 9.1-12.1 9-19.2z"/><path d="m151.2 176.9c2.8.2 9.6.8 12.3.4" stroke-dasharray="5"/><path d="m220.3 177.3c4.2.7 8.4 1.2 12.7 1.5" stroke-dasharray="5"/></g><g clip-path="url(#a)"><path d="m226.6 103.8c0 6.3-2.2 13.3-7.2 17.4-5.1 4.2-11.3 4.5-17.6 3.9-5.5-.6-11-2.8-15-6.7-4.6-4.6-6.5-11.3-5.9-17.6.5-5.5 2.7-10.9 6.8-14.6 7.8-7 21.7-7.9 30.1-1.4 5.8 4.3 8.8 11.7 8.8 19z" fill="#e8a73c"/><path d="m224.7 101.4c0 6.1-2.2 12.9-7 16.9-5 4.1-11 4.4-17.1 3.8-5.3-.5-10.7-2.7-14.6-6.6-4.5-4.5-6.3-11-5.8-17.2.5-5.3 2.6-10.6 6.7-14.2 7.6-6.8 21.1-7.7 29.3-1.4 5.6 4.4 8.5 11.6 8.5 18.7z" fill="#f9c44a"/><path d="m210.1 105.1c-.3-1.3-.2-4.4-4.3-7.1 2-1.8 2.8-4.8 1.5-7.1-1.6-2.9-7.3-3.8-9.6-1.3-2.4 2.5-1.8 6.4.7 8.4-3 1.9-4.1 5-4.4 7.4-.1.7 0 1.5-.1 2.2 0 .5-.2 1.2.3 1.6.4.4 1.2.6 1.9.7h.6c0 .6-.2 1.9.2 2.5.3.5.8.8 1.3.8 1.4.1 7.9.1 8.2.1 1.1 0 1.3-1.7 1.4-2.6 0-.1 0-.7 0-.8h1.4c1.4 0 1.3-1.2 1.3-1.9-.1-1-.2-1.9-.4-2.9z" fill="#fff"/><path d="m186 57c0 2.2-.8 4.7-2.5 6.1-1.8 1.5-4 1.6-6.2 1.4-1.9-.2-3.9-1-5.3-2.4-1.6-1.6-2.3-4-2.1-6.2.2-1.9 1-3.9 2.4-5.2 2.8-2.5 7.7-2.8 10.6-.5 2.1 1.6 3.1 4.2 3.1 6.8z" fill="#e8a73c"/><path d="m185.4 56.2c0 2.2-.8 4.6-2.5 6-1.8 1.5-3.9 1.6-6.1 1.3-1.9-.2-3.8-1-5.2-2.3-1.6-1.6-2.2-3.9-2-6.1.2-1.9.9-3.8 2.4-5 2.7-2.4 7.5-2.7 10.4-.5 2 1.5 3 4.1 3 6.6z" fill="#f9c44a"/><path d="m180.2 57.5c-.1-.5-.1-1.6-1.5-2.5.7-.6 1-1.7.5-2.5-.6-1-2.6-1.3-3.4-.5-.8.9-.6 2.3.2 3-1.1.7-1.5 1.8-1.6 2.6v.8c0 .2-.1.4.1.6.1.1.4.2.7.2h.2c0 .2-.1.7.1.9.1.2.3.3.4.3h2.9c.4 0 .5-.6.5-.9 0 0 0-.2 0-.3h.5c.5 0 .5-.4.5-.7 0-.4 0-.7-.1-1z" fill="#fff"/><path d="m243 48.8c0 2.7-.9 5.6-3 7.4-2.2 1.8-4.8 1.9-7.5 1.7-2.3-.2-4.7-1.2-6.4-2.9-2-1.9-2.7-4.8-2.5-7.5.2-2.3 1.1-4.6 2.9-6.2 3.3-3 9.2-3.4 12.8-.6 2.4 1.8 3.7 4.9 3.7 8.1z" fill="#e8a73c"/><path d="m242.2 47.8c0 2.6-.9 5.5-3 7.2s-4.7 1.9-7.3 1.6c-2.3-.2-4.6-1.2-6.2-2.8-1.9-1.9-2.7-4.7-2.5-7.3.2-2.3 1.1-4.5 2.8-6.1 3.2-2.9 9-3.3 12.5-.6 2.5 1.9 3.7 4.9 3.7 8z" fill="#f9c44a"/><path d="m236 49.3c-.1-.6-.1-1.9-1.8-3 .8-.7 1.2-2.1.7-3-.7-1.3-3.1-1.6-4.1-.6-1 1.1-.7 2.7.3 3.6-1.3.8-1.8 2.1-1.9 3.1v.9c0 .2-.1.5.1.7s.5.3.8.3h.2c0 .3-.1.8.1 1 .1.2.3.3.5.3h3.5c.5 0 .6-.7.6-1.1 0-.1 0-.3 0-.4h.6c.6 0 .5-.5.6-.8-.1-.2-.1-.6-.2-1z" fill="#fff"/></g><g clip-path="url(#a)"><path d="m215.4 254.8c.2 6.3-1.8 13.3-6.6 17.6-5 4.4-11.1 4.9-17.4 4.5-5.5-.4-11.1-2.4-15.2-6.3-4.7-4.4-6.8-11.1-6.5-17.5.3-5.5 2.4-11 6.4-14.8 7.6-7.3 21.4-8.6 30-2.4 5.9 4.4 9.1 11.6 9.3 18.9z" fill="#db4885"/><path d="m213.5 252.5c.2 6.1-1.8 13-6.5 17.1-4.8 4.3-10.9 4.8-17 4.3-5.4-.4-10.8-2.4-14.8-6.1-4.6-4.3-6.6-10.8-6.3-17 .3-5.3 2.3-10.7 6.2-14.4 7.4-7.1 20.9-8.4 29.2-2.3 5.9 4.2 9 11.3 9.2 18.4z" fill="#f45a98"/><path d="m199.1 256.7c-.3-1.3-.3-4.4-4.5-7 1.9-1.8 2.6-4.9 1.3-7.1-1.7-2.9-7.4-3.5-9.7-1s-1.5 6.5 1 8.4c-2.9 2-4 5.1-4.2 7.5-.1.7 0 1.5 0 2.2 0 .5-.2 1.2.3 1.6.4.4 1.2.6 1.9.6h.6c0 .6-.1 1.9.3 2.5.3.5.8.8 1.3.8 1.4 0 7.9-.2 8.2-.2 1.1 0 1.3-1.8 1.3-2.6 0-.1 0-.7 0-.8.8 0 1.3-.1 1.4-.1 1.4 0 1.2-1.3 1.3-2-.3-1-.3-1.9-.5-2.8z" fill="#fff"/><path d="m247.9 301c.1 3.1-.9 6.5-3.2 8.6-2.4 2.1-5.4 2.4-8.5 2.2-2.7-.2-5.4-1.2-7.4-3.1-2.3-2.2-3.3-5.4-3.2-8.5.1-2.7 1.1-5.4 3.1-7.2 3.7-3.5 10.4-4.2 14.6-1.2 3 2.1 4.5 5.6 4.6 9.2z" fill="#db4885"/><path d="m247.9 299.9c.1 3-.9 6.3-3.1 8.4-2.4 2.1-5.3 2.3-8.3 2.1-2.6-.2-5.3-1.2-7.2-3-2.2-2.1-3.2-5.3-3.1-8.3.1-2.6 1.1-5.2 3-7 3.6-3.4 10.2-4.1 14.3-1.1 2.8 1.9 4.3 5.4 4.4 8.9z" fill="#f45a98"/><path d="m241 301.9c-.2-.7-.2-2.1-2.2-3.4.9-.9 1.3-2.4.6-3.5-1.2-2.1-5-1.6-5.3.9-.1.5 0 1 .2 1.5.1.1.7 1.3.9 1.2-1.4 1-1.9 2.5-2 3.7v1.1c0 .3-.1.6.2.8.2.2.6.3.9.3h.3c0 .3 0 .9.1 1.2.1.2.4.4.6.4.7 0 3.8-.1 4-.1.5 0 .6-.9.6-1.3 0-.1 0-.3 0-.4h.7c.7 0 .6-.6.6-1-.1-.5-.1-1-.2-1.4z" fill="#fff"/><path d="m164.4 283.4c.1 2.7-.8 5.8-2.9 7.6-2.1 1.9-4.8 2.1-7.5 1.9-2.4-.2-4.8-1.1-6.6-2.7-2-1.9-2.9-4.8-2.8-7.6.1-2.4 1-4.8 2.8-6.4 3.3-3.1 9.3-3.7 13-1 2.5 1.9 3.9 5 4 8.2z" fill="#db4885"/><path d="m164.6 283.8c.1 2.6-.8 5.6-2.8 7.4-2.1 1.8-4.7 2.1-7.4 1.9-2.3-.2-4.7-1-6.4-2.6-2-1.9-2.9-4.7-2.7-7.4.1-2.3 1-4.6 2.7-6.3 3.2-3.1 9-3.6 12.7-1 2.5 1.8 3.8 4.9 3.9 8z" fill="#f45a98"/><path d="m158.3 285.6c-.1-.6-.1-1.9-2-3 .8-.8 1.1-2.1.6-3.1-.7-1.2-3.2-1.5-4.2-.4s-.7 2.8.4 3.6c-1.3.9-1.7 2.2-1.8 3.3v.9c0 .2-.1.5.1.7s.5.2.8.3h.2c0 .3 0 .8.1 1.1.1.2.4.3.6.3.6 0 3.4-.1 3.5-.1.5 0 .5-.8.5-1.1 0-.1 0-.3 0-.4h.6c.6 0 .5-.6.6-.9.2-.4.1-.8 0-1.2z" fill="#fff"/></g><g clip-path="url(#a)"><path d="m304.6 170.1c-.3-5.5-2.4-11-6.4-14.8-7.6-7.3-21.4-8.6-30-2.4-6 4.3-9.1 11.6-9.4 18.9-.2 6.3 1.8 13.3 6.6 17.6 2.8 2.5 6.3 4.2 10.1 5 1.9.4 3.8.5 5.6.4 3.7-.2 8-.3 11.4-2 8.4-4.5 12.6-13.2 12.1-22.7z" fill="#99a4c6"/><path d="m302.4 171.8c-.3-5.3-2.3-10.7-6.2-14.4-7.4-7.1-20.9-8.4-29.2-2.3-5.8 4.2-8.9 11.3-9.1 18.4-.2 5.7 2 12.4 6.2 16.3 3.8 3.5 9.3 5.6 14.5 5.8 4.9.2 10.3-.5 14.6-3.1 6.7-4.3 9.6-13.1 9.2-20.7z" fill="#aab9d6"/><path d="m272.3 177.6c.3-1.3.3-4.4 4.5-7-1.9-1.8-2.6-4.9-1.3-7.1 1.7-2.9 7.4-3.5 9.7-1s1.5 6.5-1 8.4c2.9 2 4 5.1 4.2 7.5.1.7 0 1.5 0 2.2 0 .5.2 1.2-.3 1.6-.4.4-1.2.6-1.9.6-.1 0-.3 0-.6 0 0 .6.1 1.9-.3 2.5-.3.5-.8.8-1.3.8-1.4 0-7.9-.2-8.2-.2-1.1 0-1.3-1.8-1.3-2.6 0-.1 0-.7 0-.8-.8 0-1.3-.1-1.4-.1-1.4 0-1.2-1.3-1.3-2 .2-1 .3-1.9.5-2.8z" fill="#fff"/><path d="m329 212.3c-.1-2.4-1-4.8-2.8-6.4-3.3-3.1-9.3-3.7-13-1-2.6 1.9-4 5-4.1 8.2-.1 2.7.8 5.8 2.9 7.6 1.2 1.1 2.7 1.8 4.4 2.1.8.2 1.6.2 2.4.2 1.6-.1 3.5-.1 4.9-.9 3.7-2 5.6-5.7 5.3-9.8z" fill="#99a4c6"/><path d="m328.1 211.8c-.1-2.3-1-4.6-2.7-6.3-3.2-3.1-9-3.6-12.7-1-2.5 1.8-3.9 4.9-3.9 8-.1 2.5.9 5.4 2.7 7.1 1.7 1.5 4 2.4 6.3 2.5 2.1.1 4.5-.2 6.3-1.4 2.9-1.8 4.2-5.6 4-8.9z" fill="#aab9d6"/><path d="m315.1 214.3c.1-.6.1-1.9 2-3-.8-.8-1.1-2.1-.6-3.1.7-1.3 3.2-1.5 4.2-.4s.7 2.8-.4 3.6c1.3.9 1.7 2.2 1.8 3.3v.9c0 .2.1.5-.1.7s-.5.2-.8.3c-.1 0-.1 0-.2 0 0 .3 0 .8-.1 1.1-.1.2-.4.3-.6.3-.6 0-3.4-.1-3.5-.1-.5 0-.5-.8-.5-1.1 0-.1 0-.3 0-.4-.3 0-.5 0-.6 0-.6 0-.5-.6-.6-.9-.2-.4-.1-.8 0-1.2z" fill="#fff"/><path d="m341.9 137.7c-.2-3.3-1.4-6.6-3.8-8.8-4.5-4.3-12.8-5.1-17.9-1.4-3.6 2.6-5.5 6.9-5.6 11.3-.1 3.7 1.1 8 4 10.5 1.7 1.5 3.8 2.5 6 3 1.1.2 2.2.3 3.4.2 2.2-.1 4.8-.2 6.8-1.2 4.9-2.8 7.4-7.9 7.1-13.6z" fill="#99a4c6"/><path d="m342.6 138.2c-.2-3.2-1.4-6.4-3.7-8.6-4.4-4.2-12.5-5-17.5-1.4-3.5 2.5-5.3 6.7-5.4 11-.1 3.4 1.2 7.4 3.7 9.7 2.3 2.1 5.6 3.3 8.6 3.5 2.9.1 6.2-.3 8.7-1.9 4.2-2.5 5.9-7.7 5.6-12.3z" fill="#aab9d6"/><path d="m333.8 141.7c-.2-.8-.2-2.6-2.7-4.2 1.1-1.1 1.6-2.9.8-4.2-1-1.7-4.4-2.1-5.8-.6s-.9 3.9.6 5c-1.8 1.2-2.4 3.1-2.5 4.5v1.3c0 .3-.1.7.2 1 .3.2.7.3 1.1.4h.3c0 .4-.1 1.1.2 1.5.2.3.5.5.8.5.8 0 4.7-.1 4.9-.1.7 0 .7-1.1.8-1.6 0-.1 0-.4 0-.5h.8c.8 0 .7-.8.8-1.2-.2-.7-.2-1.3-.3-1.8z" fill="#fff"/></g><g clip-path="url(#a)"><path d="m80.8 179.6c.2 5.8 2.1 11.8 6.7 15.7 7.3 6.4 18.7 6.9 27.4 2.7 8.6-4.1 12.5-13.7 11.5-22.9-.6-5.4-3-10.8-7.2-14.4-8-6.8-21.9-7.3-30.1-.6-5.7 4.8-8.5 12.2-8.3 19.5z" fill="#4081f2"/><path d="m82.6 177.2c.2 5.7 2.2 11.3 6.6 15.2 4.2 3.6 9.6 5.3 15.1 5.2 6.6-.1 14.2-1.9 18.3-7.4 3.5-4.7 4.9-11.6 4.3-17.3-.6-5.3-2.9-10.6-7.1-14-7.8-6.6-21.3-7.1-29.3-.6-5.4 4.5-8.1 11.8-7.9 18.9z" fill="#4fa3ff"/><path d="m96.4 180.1c.2-1.4.1-4.4 4.1-7.2-2-1.7-2.9-4.8-1.7-7 1.5-3 7.2-4 9.6-1.6s1.9 6.4-.5 8.4c3.1 1.8 4.3 4.9 4.6 7.3.1.7.1 1.5.1 2.2 0 .5.3 1.1-.2 1.6-.4.4-1.2.6-1.9.7-.1 0-.3 0-.6 0 0 .6.2 1.9-.1 2.5-.3.5-.8.8-1.2.8-1.4.1-7.8.3-8.2.3-1.1 0-1.4-1.7-1.4-2.5 0-.1 0-.7 0-.8-.8 0-1.3 0-1.4 0-1.4 0-1.3-1.2-1.4-1.9 0-.9 0-1.8.2-2.8z" fill="#fff"/><path d="m44.8 218.6c.1 2.7 1 5.5 3.1 7.3 3.4 3 8.7 3.2 12.7 1.3s5.8-6.4 5.3-10.6c-.3-2.5-1.4-5-3.4-6.7-3.7-3.2-10.2-3.4-14-.3-2.5 2.2-3.8 5.6-3.7 9z" fill="#4081f2"/><path d="m44.5 218.3c.1 2.6 1 5.3 3.1 7.1 2 1.7 4.5 2.5 7 2.4 3.1 0 6.6-.9 8.5-3.4 1.6-2.2 2.3-5.4 2-8.1-.3-2.5-1.4-4.9-3.3-6.5-3.6-3.1-9.9-3.3-13.6-.3-2.5 2.2-3.8 5.5-3.7 8.8z" fill="#4fa3ff"/><path d="m50.9 219.7c.1-.6 0-2 1.9-3.4-.9-.8-1.3-2.2-.8-3.3.7-1.4 3.3-1.8 4.5-.7 1.1 1.1.9 3-.2 3.9 1.4.8 2 2.3 2.2 3.4.1.3 0 .7.1 1 0 .2.1.5-.1.8-.2.2-.6.3-.9.3-.1 0-.2 0-.3 0 0 .3.1.9-.1 1.1-.1.2-.4.4-.6.4-.6.1-3.6.1-3.8.1-.5 0-.6-.8-.7-1.2 0-.1 0-.3 0-.4-.4 0-.6 0-.6 0-.7 0-.6-.6-.6-.9-.1-.2-.1-.7 0-1.1z" fill="#fff"/><path d="m53.7 146.2c.1 2.2.8 4.5 2.6 6 2.8 2.4 7.2 2.6 10.5 1s4.8-5.3 4.4-8.8c-.2-2.1-1.2-4.2-2.8-5.5-3.1-2.6-8.4-2.8-11.5-.2-2.3 1.9-3.3 4.7-3.2 7.5z" fill="#4081f2"/><path d="m53.4 146.7c.1 2.2.8 4.3 2.5 5.8 1.6 1.4 3.7 2 5.8 2 2.5 0 5.4-.7 7-2.8 1.3-1.8 1.9-4.4 1.6-6.6-.2-2-1.1-4-2.7-5.4-3-2.5-8.2-2.7-11.2-.2-2 1.7-3.1 4.5-3 7.2z" fill="#4fa3ff"/><path d="m58.7 147.8c.1-.5 0-1.7 1.6-2.8-.8-.7-1.1-1.8-.7-2.7.6-1.1 2.7-1.5 3.7-.6.9.9.7 2.4-.2 3.2 1.2.7 1.6 1.9 1.8 2.8 0 .3 0 .6.1.8 0 .2.1.4-.1.6s-.5.2-.7.3c-.1 0-.1 0-.2 0 0 .2.1.7 0 .9s-.3.3-.5.3c-.5 0-3 .1-3.1.1-.4 0-.5-.6-.5-1 0-.1 0-.3 0-.3-.3 0-.5 0-.5 0-.5 0-.5-.5-.5-.7-.3-.2-.3-.5-.2-.9z" fill="#fff"/></g></svg>