<svg width="170" height="170" viewBox="0 0 170 170" fill="none" xmlns="http://www.w3.org/2000/svg">
<circle cx="85" cy="85" r="85" fill="url(#paint0_linear_454_33)"/>
<path d="M32.6912 140.542V151.977H133.447V140.542C133.447 123.001 108.715 114.098 83.4506 114.133C58.3369 114.167 32.6912 121.972 32.6912 140.542V140.542Z" fill="#424242"/>
<path d="M83.0691 108.352H72.5703V119.44C72.5703 124.458 76.8484 128.528 82.1209 128.528H84.0288C89.3013 128.528 93.5794 124.458 93.5794 119.44V108.352H83.0691Z" fill="#DBA689"/>
<path d="M94.4466 152H71.6916V114.653L83.0691 128.528L94.4466 114.653V152Z" fill="#424242"/>
<path d="M120.347 64.5181C120.347 64.5181 127.157 65.6975 127.157 73.0397C127.157 79.5147 122.185 82.07 117.213 82.07V64.5181H120.347Z" fill="#DBA689"/>
<path d="M46.0228 64.5181C46.0228 64.5181 39.2125 65.6975 39.2125 73.0397C39.2125 79.5147 44.1844 82.07 49.1563 82.07V64.5181H46.0228Z" fill="#DBA689"/>
<path d="M83.1847 16.4528C53.8159 16.4528 46.1384 39.2194 46.1384 71.2012C46.1384 104.362 67.4481 112.942 83.1847 112.942C98.69 112.942 120.231 104.617 120.231 71.2012C120.242 39.2194 112.553 16.4528 83.1847 16.4528V16.4528Z" fill="#FADCBC"/>
<path d="M84.075 12.2787C84.075 12.2787 83.4969 12.2556 83.2541 12.2672C83.0113 12.2672 82.4331 12.2787 82.4331 12.2787C50.7403 12.8916 41.1897 31.9581 41.1897 45.1741C41.1897 58.02 41.2013 67.4666 41.2013 67.4666C41.2013 67.4666 41.71 66.9463 42.635 66.2178C43.6294 65.4431 44.7278 65.0153 44.7278 65.0153L46.3234 75.7453L56.88 53.6841C56.9494 53.5453 57.0881 53.4644 57.2384 53.4875L63.4938 54.1813C69.7838 54.875 76.1084 55.2219 82.4216 55.2334V55.245C82.6991 55.245 82.965 55.2334 83.2425 55.2334C83.52 55.2334 83.7859 55.245 84.0634 55.245V55.2219C90.3766 55.1987 96.7013 54.8634 102.991 54.1697L109.247 53.4759C109.397 53.4644 109.536 53.5453 109.605 53.6725L120.162 75.7338L121.757 65.0037C121.757 65.0037 122.856 65.4431 123.85 66.2062C124.787 66.9347 125.284 67.455 125.284 67.455C125.284 67.455 125.295 58.02 125.295 45.1625C125.318 31.9581 115.768 12.8916 84.075 12.2787V12.2787Z" fill="#312D2D"/>
<path d="M83.1037 4L25.4531 14.6606L83.2541 4.02312L83.1037 4Z" fill="#262626"/>
<path d="M83.4275 4.01156L83.3928 4L83.254 4.02312L83.4275 4.05781V4.01156Z" fill="#424143"/>
<path d="M83.7512 4L141.413 14.6606L83.6125 4.02312L83.7512 4Z" fill="#262626"/>
<path d="M141.437 17.5975L141.413 14.6606L83.4737 23.055H83.4044L25.4531 14.6606L25.43 17.5975L48.6359 21.6559L46.6472 27.2753C50.9022 29.1484 66.315 35.3691 83.4275 35.82C100.54 35.3575 115.409 29.1484 119.664 27.2753L117.676 21.6559L141.437 17.5975V17.5975Z" fill="#262626"/>
<path d="M83.4275 4.01156L83.4737 4L83.6125 4.02312L83.4275 4.05781V4.01156Z" fill="#424143"/>
<path d="M83.6125 4.02313L83.4275 4.05782L83.2541 4.02313L25.4531 14.6606L83.3928 23.055L83.4275 23.0434L83.4738 23.055L141.413 14.6606L83.6125 4.02313Z" fill="#424143"/>
<path d="M142.466 57.0719C141.298 57.0719 140.361 58.02 140.361 59.1763V68.2297C140.361 68.7878 140.583 69.3231 140.978 69.7177C141.372 70.1124 141.907 70.3341 142.466 70.3341C143.024 70.3341 143.559 70.1124 143.954 69.7177C144.348 69.3231 144.57 68.7878 144.57 68.2297V59.1763C144.57 58.02 143.633 57.0719 142.466 57.0719V57.0719Z" fill="#FBC11B"/>
<path d="M138.257 57.0719C137.089 57.0719 136.152 58.02 136.152 59.1763V68.2297C136.152 68.7878 136.374 69.3231 136.769 69.7177C137.163 70.1124 137.699 70.3341 138.257 70.3341C138.815 70.3341 139.35 70.1124 139.745 69.7177C140.14 69.3231 140.361 68.7878 140.361 68.2297V59.1763C140.361 58.02 139.425 57.0719 138.257 57.0719V57.0719Z" fill="#FBC11B"/>
<path d="M139.598 57.0719C138.43 57.0719 137.494 58.02 137.494 59.1763V68.2297C137.494 68.7878 137.715 69.3231 138.11 69.7177C138.505 70.1124 139.04 70.3341 139.598 70.3341C140.156 70.3341 140.691 70.1124 141.086 69.7177C141.481 69.3231 141.702 68.7878 141.702 68.2297V59.1763C141.702 58.02 140.766 57.0719 139.598 57.0719V57.0719Z" fill="#E49500"/>
<path d="M141.205 57.0719C140.037 57.0719 139.101 58.02 139.101 59.1763V68.2297C139.101 69.3975 140.049 70.3341 141.205 70.3341C142.362 70.3341 143.31 69.386 143.31 68.2297V59.1763C143.31 58.02 142.373 57.0719 141.205 57.0719Z" fill="#E49500"/>
<path d="M140.361 57.0719C139.193 57.0719 138.257 58.02 138.257 59.1763V70.1838C138.257 70.7419 138.479 71.2771 138.873 71.6718C139.268 72.0664 139.803 72.2881 140.361 72.2881C140.919 72.2881 141.455 72.0664 141.849 71.6718C142.244 71.2771 142.466 70.7419 142.466 70.1838V59.1763C142.466 58.02 141.529 57.0719 140.361 57.0719V57.0719Z" fill="#FBC11B"/>
<path d="M140.361 58.8525C141.677 58.8525 142.743 57.7861 142.743 56.4707C142.743 55.1552 141.677 54.0888 140.361 54.0888C139.046 54.0888 137.979 55.1552 137.979 56.4707C137.979 57.7861 139.046 58.8525 140.361 58.8525Z" fill="#E49500"/>
<path d="M140.361 58.2397C141.677 58.2397 142.743 57.1733 142.743 55.8578C142.743 54.5424 141.677 53.476 140.361 53.476C139.046 53.476 137.979 54.5424 137.979 55.8578C137.979 57.1733 139.046 58.2397 140.361 58.2397Z" fill="#FBC11B"/>
<path d="M139.321 14.9266V55.3375H139.344C139.39 55.8694 139.829 56.2972 140.373 56.2972C140.916 56.2972 141.356 55.881 141.402 55.3375H141.425V14.9266H139.321Z" fill="#262626"/>
<defs>
<linearGradient id="paint0_linear_454_33" x1="85" y1="0" x2="85" y2="170" gradientUnits="userSpaceOnUse">
<stop stop-color="#ECF6FE"/>
<stop offset="1" stop-color="#C5E5FF"/>
</linearGradient>
</defs>
</svg>
