<svg width="170" height="170" viewBox="0 0 170 170" fill="none" xmlns="http://www.w3.org/2000/svg">
<circle cx="85" cy="85" r="85" fill="url(#paint0_linear_454_31)"/>
<path d="M117.729 144.958V105.688C117.729 104.017 119.082 102.667 120.75 102.667H147.937C149.605 102.667 150.958 104.017 150.958 105.688V144.958C150.958 146.629 149.605 147.979 147.937 147.979H120.75C119.082 147.979 117.729 146.629 117.729 144.958Z" fill="#1E2B39"/>
<path d="M48.25 147.979H21.0625C19.395 147.979 18.0416 146.629 18.0416 144.958V105.688C18.0416 104.017 19.395 102.667 21.0625 102.667H48.25C49.9175 102.667 51.2708 104.017 51.2708 105.688V144.958C51.2708 146.629 49.9175 147.979 48.25 147.979Z" fill="#1E2B39"/>
<path d="M120.778 148.035H48.2777C46.6102 148.035 45.2569 146.684 45.2569 145.014V75.5346C45.2569 73.864 46.6102 72.5137 48.2777 72.5137H120.778C122.445 72.5137 123.799 73.864 123.799 75.5346V145.014C123.799 146.684 122.445 148.035 120.778 148.035Z" fill="#CDD6E4"/>
<path d="M84.5 51.3125C82.8294 51.3125 81.4791 49.9592 81.4791 48.2917V12.0417C81.4791 10.3742 82.8325 9.02084 84.5 9.02084C86.1675 9.02084 87.5208 10.3742 87.5208 12.0417V48.2917C87.5208 49.9592 86.1705 51.3125 84.5 51.3125Z" fill="#5B5B5B"/>
<path d="M111.687 36.2083H87.5208V15.0625H111.687C113.355 15.0625 114.708 16.4158 114.708 18.0833V33.1875C114.708 34.855 113.355 36.2083 111.687 36.2083Z" fill="#F9C42E"/>
<path d="M132.833 78.5H36.1666C34.8193 78.5 33.6352 77.6059 33.2636 76.3099C32.892 75.014 33.4237 73.6304 34.5686 72.9175L82.9019 42.7092C83.8807 42.096 85.1222 42.096 86.104 42.7092L134.437 72.9175C135.579 73.6304 136.114 75.014 135.742 76.3099C135.371 77.6059 134.181 78.5 132.833 78.5Z" fill="#F6FAFE"/>
<path d="M54.2916 78.5H42.2083V147.979H54.2916V78.5Z" fill="#F6FAFE"/>
<path d="M126.792 78.5H114.708V147.979H126.792V78.5Z" fill="#F6FAFE"/>
<path d="M78.4583 78.5H66.375V147.979H78.4583V78.5Z" fill="#F6FAFE"/>
<path d="M102.625 78.5H90.5416V147.979H102.625V78.5Z" fill="#F6FAFE"/>
<path d="M126.792 141.938H42.2083V147.979H126.792V141.938Z" fill="#DDDDDD"/>
<path d="M55.2402 147.979C56.5543 145.23 57.3125 142.167 57.3125 138.917C57.3125 127.238 47.8452 117.771 36.1666 117.771C24.4881 117.771 15.0208 127.238 15.0208 138.917C15.0208 142.167 15.779 145.23 17.0931 147.979H55.2402Z" fill="#7BA7E3"/>
<path d="M113.76 147.979C112.446 145.23 111.688 142.167 111.688 138.917C111.688 127.238 121.155 117.771 132.833 117.771C144.512 117.771 153.979 127.238 153.979 138.917C153.979 142.167 153.221 145.23 151.907 147.979H113.76Z" fill="#7BA7E3"/>
<path d="M54.2916 78.5H42.2083V87.5625H54.2916V78.5Z" fill="#CDD6E4"/>
<path d="M78.4583 78.5H66.375V87.5625H78.4583V78.5Z" fill="#CDD6E4"/>
<path d="M102.625 78.5H90.5416V87.5625H102.625V78.5Z" fill="#CDD6E4"/>
<path d="M66.375 78.5H54.2916V87.5625H66.375V78.5Z" fill="#90A9D0"/>
<path d="M90.5416 78.5H78.4583V87.5625H90.5416V78.5Z" fill="#90A9D0"/>
<path d="M114.708 78.5H102.625V87.5625H114.708V78.5Z" fill="#90A9D0"/>
<path d="M126.792 78.5H114.708V87.5625H126.792V78.5Z" fill="#CDD6E4"/>
<defs>
<linearGradient id="paint0_linear_454_31" x1="85" y1="0" x2="85" y2="170" gradientUnits="userSpaceOnUse">
<stop stop-color="#ECF6FE"/>
<stop offset="1" stop-color="#C5E5FF"/>
</linearGradient>
</defs>
</svg>
