<svg width="170" height="170" viewBox="0 0 170 170" fill="none" xmlns="http://www.w3.org/2000/svg">
<circle cx="85" cy="85" r="85" fill="url(#paint0_linear_454_30)"/>
<path d="M119.646 56.875H88.6042V94.125H119.646V56.875Z" fill="#CDD6E4"/>
<path fill-rule="evenodd" clip-rule="evenodd" d="M57.5402 146.896C55.8381 146.896 54.4584 145.526 54.4584 143.769V105.012C54.4584 99.8564 58.1776 93.8175 62.8114 91.5006L88.6042 78.6042C88.6042 78.6042 94.8125 84.8125 104.125 84.8125C113.438 84.8125 119.646 78.6042 119.646 78.6042L145.439 91.5006C150.052 93.8072 153.792 99.8685 153.792 105.012V143.769C153.792 145.496 152.388 146.896 150.71 146.896H57.5402Z" fill="#1D2C39"/>
<path fill-rule="evenodd" clip-rule="evenodd" d="M128.958 47.5625C128.958 61.2776 117.84 72.3958 104.125 72.3958C90.41 72.3958 79.2917 61.2776 79.2917 47.5625V38.25C79.2917 24.5349 90.41 13.4167 104.125 13.4167C117.84 13.4167 128.958 24.5349 128.958 38.25V47.5625Z" fill="#F6FAFE"/>
<path fill-rule="evenodd" clip-rule="evenodd" d="M128.958 41.3542V25.8332C128.958 19.0031 123.398 13.4167 116.538 13.4167H114.99L111.73 6.89824C110.942 5.32163 109.051 4.61721 107.469 5.25005L87.9386 13.0621C83.1604 14.9734 79.2917 20.6925 79.2917 25.8385V41.3542C79.2917 34.4966 84.8509 28.9375 91.7084 28.9375H116.542C123.399 28.9375 128.958 34.4966 128.958 41.3542Z" fill="#1D2C39"/>
<path fill-rule="evenodd" clip-rule="evenodd" d="M35.8334 69.2917C35.8334 52.1478 49.7312 38.25 66.875 38.25C84.0189 38.25 97.9167 52.1478 97.9167 69.2917V94.1048C97.9167 100.974 92.3526 106.542 85.5024 106.542H48.2477C41.3914 106.542 35.8334 100.973 35.8334 94.1048V69.2917Z" fill="#162B4E"/>
<path d="M82.3959 87.9167H51.3542V123.345H82.3959V87.9167Z" fill="#CDD6E4"/>
<path fill-rule="evenodd" clip-rule="evenodd" d="M20.2901 146.896C18.5881 146.896 17.2084 145.509 17.2084 143.787V136.04C17.2084 130.892 20.9276 124.859 25.5614 122.542L51.3542 109.646C51.3542 109.646 57.5625 115.854 66.875 115.854C76.1875 115.854 82.3959 109.646 82.3959 109.646L108.189 122.542C112.802 124.849 116.542 130.9 116.542 136.04V143.787C116.542 145.504 115.137 146.896 113.46 146.896H20.2901Z" fill="#F9C42E"/>
<path fill-rule="evenodd" clip-rule="evenodd" d="M42.0417 74.3687V78.8839C42.0417 92.5761 53.1829 103.717 66.8751 103.717C80.5673 103.717 91.7084 92.5761 91.7084 78.8839V74.3687C91.7084 70.6283 88.6762 67.596 84.9357 67.596C77.0727 67.596 70.2529 63.1295 66.8751 56.5953C63.4972 63.1295 56.6775 67.596 48.8145 67.596C45.074 67.596 42.0417 70.6283 42.0417 74.3687Z" fill="#F6FAFE"/>
<defs>
<linearGradient id="paint0_linear_454_30" x1="85" y1="0" x2="85" y2="170" gradientUnits="userSpaceOnUse">
<stop stop-color="#ECF6FE"/>
<stop offset="1" stop-color="#C5E5FF"/>
</linearGradient>
</defs>
</svg>
